<?xml version="1.0" standalone="no"?>
<!DOCTYPE svg PUBLIC "-//W3C//DTD SVG 20010904//EN"
 "http://www.w3.org/TR/2001/REC-SVG-20010904/DTD/svg10.dtd">
<svg version="1.0" xmlns="http://www.w3.org/2000/svg"
 width="518.000000pt" height="518.000000pt" viewBox="0 0 518.000000 518.000000"
 preserveAspectRatio="xMidYMid meet">
<g transform="translate(0.000000,518.000000) scale(0.100000,-0.100000)"
fill="#000000" stroke="none">
<path d="M2345 4955 c-126 -73 -599 -344 -1050 -603 -466 -267 -827 -480 -836
-493 -16 -22 -18 -117 -21 -1256 l-3 -1232 25 -25 c20 -20 1825 -1075 2056
-1202 33 -19 72 -34 86 -34 15 0 233 119 534 291 280 161 752 431 1049 601
297 170 551 320 565 334 l25 24 3 1234 4 1233 -24 25 c-12 14 -493 299 -1067
632 -873 507 -1050 606 -1080 605 -27 0 -91 -32 -266 -134z m1301 -677 l934
-543 0 -1083 c0 -607 -4 -1082 -9 -1080 -4 2 -427 243 -940 537 l-931 534 0
115 c0 104 2 114 17 108 10 -4 335 -189 724 -411 388 -222 725 -408 747 -415
33 -8 48 -8 77 4 68 29 66 1 63 820 -3 726 -3 735 -24 763 -14 19 -283 179
-810 480 l-789 452 -3 130 c-1 72 0 131 4 131 3 0 426 -244 940 -542z m-1148
-1002 l-3 -515 -890 510 c-489 281 -891 512 -892 513 -2 1 399 232 890 514
l892 511 3 -509 c1 -280 1 -740 0 -1024z m287 1003 c96 -57 931 -533 1145
-653 96 -54 180 -105 187 -114 18 -22 19 -1216 1 -1209 -7 3 -236 133 -508
289 -719 413 -883 508 -897 520 -10 8 -13 140 -13 609 0 330 3 599 8 599 4 0
39 -19 77 -41z m-2002 -769 l57 -32 0 -934 c0 -769 2 -940 14 -967 12 -30 105
-85 952 -566 517 -294 952 -541 968 -551 l28 -17 -95 -57 c-53 -31 -100 -56
-106 -56 -10 0 -1949 1125 -1965 1140 -5 5 -5 472 -1 1064 l8 1056 41 -24 c22
-13 67 -38 99 -56z m662 -380 c215 -123 755 -432 1200 -688 446 -255 1031
-590 1300 -744 270 -155 496 -286 503 -293 15 -14 51 8 -921 -549 -286 -164
-524 -295 -530 -292 -7 3 -448 254 -982 558 l-970 553 -3 843 c-1 464 1 841 5
839 5 -2 184 -105 398 -227z"/>
</g>
</svg>
